<svg width="12" height="18" viewBox="0 0 12 18" fill="none" xmlns="http://www.w3.org/2000/svg">
<path d="M5.8 18C5.65333 18 5.54 17.9533 5.46 17.86C5.38 17.78 5.34 17.6733 5.34 17.54V16.14C4.36667 16.06 3.54667 15.84 2.88 15.48C2.21333 15.1067 1.70667 14.66 1.36 14.14C1.01333 13.62 0.826667 13.0667 0.8 12.48C0.8 12.3733 0.84 12.28 0.92 12.2C1.01333 12.1067 1.12 12.06 1.24 12.06H2.26C2.42 12.06 2.54 12.1 2.62 12.18C2.7 12.26 2.75333 12.3533 2.78 12.46C2.86 12.78 3.02667 13.1 3.28 13.42C3.53333 13.7267 3.89333 13.9867 4.36 14.2C4.84 14.4 5.45333 14.5 6.2 14.5C7.34667 14.5 8.18667 14.3 8.72 13.9C9.26667 13.4867 9.54 12.94 9.54 12.26C9.54 11.7933 9.39333 11.42 9.1 11.14C8.82 10.8467 8.38667 10.5867 7.8 10.36C7.21333 10.1333 6.45333 9.88667 5.52 9.62C4.54667 9.34 3.74 9.03333 3.1 8.7C2.46 8.36667 1.98 7.95333 1.66 7.46C1.35333 6.96667 1.2 6.34 1.2 5.58C1.2 4.60667 1.56 3.77333 2.28 3.08C3 2.37333 4.02 1.96 5.34 1.84V0.46C5.34 0.326666 5.38 0.219999 5.46 0.139999C5.54 0.0466662 5.65333 -2.38419e-07 5.8 -2.38419e-07H6.56C6.69333 -2.38419e-07 6.8 0.0466662 6.88 0.139999C6.97333 0.219999 7.02 0.326666 7.02 0.46V1.86C7.91333 1.96667 8.66 2.21333 9.26 2.6C9.86 2.98667 10.3133 3.43333 10.62 3.94C10.9267 4.44667 11.0867 4.94 11.1 5.42C11.1 5.51333 11.0667 5.60667 11 5.7C10.9333 5.78 10.8267 5.82 10.68 5.82H9.62C9.52667 5.82 9.42667 5.79333 9.32 5.74C9.22667 5.68667 9.15333 5.58667 9.1 5.44C9.02 4.89333 8.71333 4.43333 8.18 4.06C7.64667 3.68667 6.95333 3.5 6.1 3.5C5.23333 3.5 4.52667 3.66667 3.98 4C3.44667 4.33333 3.18 4.85333 3.18 5.56C3.18 6.01333 3.30667 6.39333 3.56 6.7C3.81333 6.99333 4.21333 7.25333 4.76 7.48C5.30667 7.70667 6.02 7.94667 6.9 8.2C7.96667 8.49333 8.84 8.80667 9.52 9.14C10.2 9.46 10.7 9.86667 11.02 10.36C11.3533 10.84 11.52 11.46 11.52 12.22C11.52 12.98 11.3333 13.64 10.96 14.2C10.6 14.76 10.08 15.2067 9.4 15.54C8.73333 15.8733 7.94 16.08 7.02 16.16V17.54C7.02 17.6733 6.97333 17.78 6.88 17.86C6.8 17.9533 6.69333 18 6.56 18H5.8Z" fill="#C1C1C1"/>
</svg>
