<svg width="58" height="63" viewBox="0 0 58 63" fill="none" xmlns="http://www.w3.org/2000/svg">
<path d="M11.5 0.375L0.5625 13.5H7.125V24.4375H15.875V13.5H22.4375L11.5 0.375ZM42.125 0.375V11.3125H35.5625L46.5 24.4375L57.4375 11.3125H50.875V0.375H42.125ZM53.0756 28.3892C52.3538 28.4056 51.6795 28.7197 50.7596 29.7012L49.8625 30.654L48.931 29.7352C47.9211 28.7399 47.1241 28.4651 46.3162 28.5006C45.5085 28.5362 44.5587 28.9607 43.4964 29.8205L42.6462 30.5084L41.8387 29.7735C40.6219 28.6726 39.5849 28.3466 38.5916 28.3978C37.8687 28.4353 37.1185 28.7076 36.37 29.184L41.9712 39.2584C44.084 40.5506 48.4015 41.0369 51.3706 39.5407L56.7838 29.5129C55.7571 29.0943 54.8342 28.6653 54.0366 28.5006C53.7479 28.4409 53.4798 28.397 53.2204 28.3892C53.1721 28.388 53.1238 28.388 53.0755 28.3892H53.0756ZM6.03125 28.8125C0.5625 28.8125 0.5625 28.8125 0.5625 34.2812V56.1638C0.5625 61.625 0.5625 61.625 6.03125 61.625H16.9688C22.4375 61.625 22.4375 61.625 22.4375 56.1562V34.2812C22.4375 28.8125 22.4375 28.8125 16.9688 28.8125H6.03125ZM40.7749 41.5402V41.5405C38.3092 43.2825 36.3294 46.2869 35.5625 50.6875C34.8194 54.9526 35.99 57.833 38.0619 59.7961C40.1338 61.7594 43.2438 62.7681 46.4017 62.7271C49.5599 62.6861 52.7094 61.591 54.827 59.5913C56.9448 57.5915 58.1426 54.748 57.4633 50.6789C56.761 46.4738 54.9476 43.5494 52.6521 41.7795C48.758 43.8379 43.8894 43.4004 40.7749 41.5402Z" fill="#0082E8"/>
</svg>
