<svg width="80" height="70" viewBox="0 0 80 70" fill="none" xmlns="http://www.w3.org/2000/svg">
<path d="M40 70L30 56.875H35V48.125H45V56.875H50L40 70ZM75 4.375V39.375H5V4.375H75ZM80 0H0V43.75H80V0Z" fill="#0082E8"/>
<path d="M40 8.75C43.9782 8.75 47.7936 10.1328 50.6066 12.5942C53.4197 15.0556 55 18.394 55 21.875C55 25.356 53.4197 28.6944 50.6066 31.1558C47.7936 33.6172 43.9782 35 40 35H65V30.625H70V13.125H65V8.75H40ZM25 21.875C25 18.394 26.5804 15.0556 29.3934 12.5942C32.2064 10.1328 36.0218 8.75 40 8.75H15V13.125H10V30.625H15V35H40C36.0218 35 32.2064 33.6172 29.3934 31.1558C26.5804 28.6944 25 25.356 25 21.875Z" fill="#0082E8"/>
</svg>
