<svg width="80" height="57" viewBox="0 0 80 57" fill="none" xmlns="http://www.w3.org/2000/svg">
<path d="M53.3333 28.3333C53.3333 26.1232 54.2113 24.0036 55.7741 22.4408C57.3369 20.878 59.4565 20 61.6667 20C63.8768 20 65.9964 20.878 67.5592 22.4408C69.122 24.0036 70 26.1232 70 28.3333C70 30.5435 69.122 32.6631 67.5592 34.2259C65.9964 35.7887 63.8768 36.6667 61.6667 36.6667C59.4565 36.6667 57.3369 35.7887 55.7741 34.2259C54.2113 32.6631 53.3333 30.5435 53.3333 28.3333ZM43.3333 0V56.6667H80V0H43.3333ZM73.3333 43.3333C69.6667 43.3333 66.6667 46.3333 66.6667 50H56.6667C56.6667 48.2319 55.9643 46.5362 54.714 45.286C53.4638 44.0357 51.7681 43.3333 50 43.3333V13.3333C53.7 13.3333 56.6667 10.3667 56.6667 6.66667H66.6667C66.6667 8.43478 67.369 10.1305 68.6193 11.3807C69.8695 12.631 71.5652 13.3333 73.3333 13.3333V43.3333ZM23.3333 10C27 10 30 13 30 16.6667C30 20.3333 27 23.3333 23.3333 23.3333C19.6667 23.3333 16.6667 20.3333 16.6667 16.6667C16.6667 13 19.6667 10 23.3333 10ZM23.3333 3.33333C15.9667 3.33333 10 9.3 10 16.6667C10 24.0333 15.9667 30 23.3333 30C30.7 30 36.6667 24.0333 36.6667 16.6667C36.6667 9.3 30.7 3.33333 23.3333 3.33333ZM23.3333 36.6667C10.4333 36.6667 0 42.6333 0 50V56.6667H36.6667V50H6.66667C6.66667 48.0667 12.5 43.3333 23.3333 43.3333C29.4333 43.3333 33.9 44.8333 36.6667 46.5V39.0667C32.9 37.5667 28.3333 36.6667 23.3333 36.6667Z" fill="#0082E8"/>
</svg>
