<svg width="66" height="63" viewBox="0 0 66 63" fill="none" xmlns="http://www.w3.org/2000/svg">
<path d="M5.65633 48.0104L0.916748 44.5833L15.5001 21.25L24.2501 31.4583L35.9168 12.5L43.8647 24.3854C42.7466 24.434 41.6888 24.5672 40.6913 24.785C39.6958 25.0047 38.7119 25.309 37.7397 25.6979L36.1355 23.2917L25.0522 41.3021L16.2292 31.0208L5.65633 48.0104ZM60.9272 62.0833L51.8126 52.9688C50.8404 53.6493 49.7583 54.1597 48.5663 54.5C47.3763 54.8403 46.1494 55.0104 44.8855 55.0104C41.2397 55.0104 38.1412 53.7339 35.5901 51.1808C33.037 48.6297 31.7605 45.5313 31.7605 41.8854C31.7605 38.2396 33.037 35.1401 35.5901 32.5871C38.1412 30.036 41.2397 28.7604 44.8855 28.7604C48.5313 28.7604 51.6308 30.036 54.1838 32.5871C56.735 35.1401 58.0105 38.2396 58.0105 41.8854C58.0105 43.1493 57.8404 44.3763 57.5001 45.5663C57.1598 46.7582 56.6494 47.8646 55.9688 48.8854L65.0834 57.9271L60.9272 62.0833ZM44.8855 49.1771C46.9272 49.1771 48.6529 48.4722 50.0626 47.0625C51.4723 45.6528 52.1772 43.9271 52.1772 41.8854C52.1772 39.8438 51.4723 38.1181 50.0626 36.7083C48.6529 35.2986 46.9272 34.5938 44.8855 34.5938C42.8438 34.5938 41.1181 35.2986 39.7084 36.7083C38.2987 38.1181 37.5938 39.8438 37.5938 41.8854C37.5938 43.9271 38.2987 45.6528 39.7084 47.0625C41.1181 48.4722 42.8438 49.1771 44.8855 49.1771ZM51.3751 25.8437C50.4515 25.4549 49.4909 25.1389 48.4934 24.8958C47.4979 24.6528 46.4654 24.5069 45.3959 24.4583L60.3438 0.833333L65.0834 4.26042L51.3751 25.8437Z" fill="#0082E8"/>
</svg>
