<svg width="80" height="80" viewBox="0 0 80 80" fill="none" xmlns="http://www.w3.org/2000/svg">
<path fill-rule="evenodd" clip-rule="evenodd" d="M55.5669 43.7667C60.1336 46.8667 63.3336 51.0667 63.3336 56.6667V66.6667H76.6669V56.6667C76.6669 49.4 64.7669 45.1 55.5669 43.7667Z" fill="#0082E8"/>
<path d="M30.0001 40C37.3639 40 43.3334 34.0305 43.3334 26.6667C43.3334 19.3029 37.3639 13.3333 30.0001 13.3333C22.6363 13.3333 16.6667 19.3029 16.6667 26.6667C16.6667 34.0305 22.6363 40 30.0001 40Z" fill="#0082E8"/>
<path fill-rule="evenodd" clip-rule="evenodd" d="M49.9999 40C57.3666 40 63.3333 34.0333 63.3333 26.6667C63.3333 19.3 57.3666 13.3333 49.9999 13.3333C48.4333 13.3333 46.9666 13.6667 45.5666 14.1333C48.435 17.6807 49.9998 22.1047 49.9998 26.6667C49.9998 31.2287 48.435 35.6526 45.5666 39.2C46.9666 39.6667 48.4333 40 49.9999 40ZM29.9999 43.3333C21.0999 43.3333 3.33325 47.8 3.33325 56.6667V66.6667H56.6666V56.6667C56.6666 47.8 38.8999 43.3333 29.9999 43.3333Z" fill="#0082E8"/>
</svg>
