<svg width="80" height="66" viewBox="0 0 80 66" fill="none" xmlns="http://www.w3.org/2000/svg">
<path d="M66.8855 5.27569C65.7103 4.06355 65.7103 2.10351 66.8855 0.904271C68.0606 -0.294967 69.9609 -0.307862 71.1236 0.904271L79.1249 9.15709C79.6875 9.73737 80 10.524 80 11.3492C80 12.1745 79.6875 12.9611 79.1249 13.5414L71.1236 21.7942C69.9484 23.0064 68.0481 23.0064 66.8855 21.7942C65.7228 20.5821 65.7103 18.622 66.8855 17.4228L69.7609 14.4569L48.0075 14.4312C46.3447 14.4312 45.007 13.0514 45.007 11.3364C45.007 9.62131 46.3447 8.24154 48.0075 8.24154H69.7734L66.8855 5.27569ZM13.1271 48.603L10.2516 51.5688H32.005C33.6678 51.5688 35.0055 52.9486 35.0055 54.6637C35.0055 56.3787 33.6678 57.7585 32.005 57.7585H10.2391L13.1145 60.7243C14.2897 61.9365 14.2897 63.8965 13.1145 65.0957C11.9394 66.295 10.0391 66.3079 8.87639 65.0957L0.875137 56.8558C0.312549 56.2755 0 55.4889 0 54.6637C0 53.8384 0.312549 53.0518 0.875137 52.4715L8.87639 44.2187C10.0516 43.0065 11.9519 43.0065 13.1145 44.2187C14.2772 45.4308 14.2897 47.3909 13.1145 48.5901L13.1271 48.603ZM12.0019 8.24154H42.2441C41.7815 9.16999 41.5065 10.2145 41.5065 11.3364C41.5065 15.0372 44.4194 18.0418 48.0075 18.0418H62.6848C62.1847 20.2339 62.7598 22.6195 64.4101 24.3345C66.948 26.9522 71.0611 26.9522 73.599 24.3345L76.0119 21.8458V49.5056C76.0119 54.0576 72.4238 57.7585 68.0106 57.7585H37.7684C38.231 56.83 38.506 55.7855 38.506 54.6637C38.506 50.9628 35.5931 47.9582 32.005 47.9582H17.3277C17.8278 45.7661 17.2527 43.3805 15.6024 41.6655C13.0645 39.0478 8.9514 39.0478 6.4135 41.6655L4.00063 44.1542V16.4944C4.00063 11.9424 7.58869 8.24154 12.0019 8.24154ZM20.0031 16.4944H12.0019V24.7472C16.4151 24.7472 20.0031 21.0463 20.0031 16.4944ZM68.0106 41.2528C63.5974 41.2528 60.0094 44.9537 60.0094 49.5056H68.0106V41.2528ZM40.0063 45.3792C46.6323 45.3792 52.0081 39.8344 52.0081 33C52.0081 26.1656 46.6323 20.6208 40.0063 20.6208C33.3802 20.6208 28.0044 26.1656 28.0044 33C28.0044 39.8344 33.3802 45.3792 40.0063 45.3792Z" fill="#0082E8"/>
</svg>
