<svg width="80" height="80" viewBox="0 0 80 80" fill="none" xmlns="http://www.w3.org/2000/svg">
<path d="M63.3333 23.3334V33.3001C63.3333 33.3001 56.7 33.3334 56.6667 33.3001V23.3334H46.6667C46.6667 23.3334 46.7 16.7001 46.6667 16.6667H56.6667V6.66675H63.3333V16.6667H73.3333V23.3334H63.3333ZM53.3333 36.6667V26.6667H43.3333V16.6667H16.6667C13 16.6667 10 19.6667 10 23.3334V63.3334C10 67.0001 13 70.0001 16.6667 70.0001H56.6667C60.3333 70.0001 63.3333 67.0001 63.3333 63.3334V36.6667H53.3333ZM16.6667 63.3334L26.6667 50.0001L33.3333 60.0001L43.3333 46.6667L56.6667 63.3334H16.6667Z" fill="#979797"/>
</svg>
