<svg width="64" height="64" viewBox="0 0 64 64" fill="none" xmlns="http://www.w3.org/2000/svg">
<path d="M53.3333 17.3332V27.2998C53.3333 27.2998 46.7 27.3332 46.6667 27.2998V17.3332H36.6667C36.6667 17.3332 36.7 10.6998 36.6667 10.6665H46.6667V0.666504H53.3333V10.6665H63.3333V17.3332H53.3333ZM43.3333 30.6665V20.6665H33.3333V10.6665H6.66667C3 10.6665 0 13.6665 0 17.3332V57.3332C0 60.9998 3 63.9998 6.66667 63.9998H46.6667C50.3333 63.9998 53.3333 60.9998 53.3333 57.3332V30.6665H43.3333ZM6.66667 57.3332L16.6667 43.9998L23.3333 53.9998L33.3333 40.6665L46.6667 57.3332H6.66667Z" fill="#979797"/>
</svg>
