<svg width="21" height="22" viewBox="0 0 21 22" fill="none" xmlns="http://www.w3.org/2000/svg">
<path d="M18.8999 11.66C18.7396 11.4775 18.6512 11.2429 18.6512 11C18.6512 10.7571 18.7396 10.5225 18.8999 10.34L20.1799 8.9C20.3209 8.74267 20.4085 8.54471 20.4301 8.33451C20.4516 8.12431 20.4061 7.91269 20.2999 7.73L18.2999 4.27C18.1948 4.08752 18.0348 3.94288 17.8426 3.85669C17.6505 3.7705 17.4361 3.74716 17.2299 3.79L15.3499 4.17C15.1107 4.21943 14.8616 4.17959 14.6498 4.058C14.4379 3.93641 14.2779 3.74149 14.1999 3.51L13.5899 1.68C13.5228 1.48138 13.395 1.30887 13.2245 1.18684C13.0541 1.06482 12.8495 0.999461 12.6399 1H8.6399C8.42183 0.98862 8.20603 1.04893 8.02546 1.17172C7.84489 1.2945 7.70948 1.47302 7.6399 1.68L7.0799 3.51C7.0019 3.74149 6.84187 3.93641 6.63001 4.058C6.41815 4.17959 6.16911 4.21943 5.9299 4.17L3.9999 3.79C3.80445 3.76238 3.6052 3.79322 3.42724 3.87864C3.24929 3.96406 3.1006 4.10023 2.9999 4.27L0.999896 7.73C0.891056 7.91065 0.842118 8.12109 0.860079 8.33123C0.878039 8.54136 0.961979 8.74044 1.0999 8.9L2.3699 10.34C2.53022 10.5225 2.61863 10.7571 2.61863 11C2.61863 11.2429 2.53022 11.4775 2.3699 11.66L1.0999 13.1C0.961979 13.2596 0.878039 13.4586 0.860079 13.6688C0.842118 13.8789 0.891056 14.0894 0.999896 14.27L2.9999 17.73C3.10499 17.9125 3.26502 18.0571 3.45715 18.1433C3.64928 18.2295 3.86372 18.2528 4.0699 18.21L5.9499 17.83C6.18911 17.7806 6.43815 17.8204 6.65001 17.942C6.86187 18.0636 7.0219 18.2585 7.0999 18.49L7.7099 20.32C7.77948 20.527 7.91489 20.7055 8.09546 20.8283C8.27603 20.9511 8.49183 21.0114 8.7099 21H12.7099C12.9195 21.0005 13.1241 20.9352 13.2945 20.8132C13.465 20.6911 13.5928 20.5186 13.6599 20.32L14.2699 18.49C14.3479 18.2585 14.5079 18.0636 14.7198 17.942C14.9316 17.8204 15.1807 17.7806 15.4199 17.83L17.2999 18.21C17.5061 18.2528 17.7205 18.2295 17.9126 18.1433C18.1048 18.0571 18.2648 17.9125 18.3699 17.73L20.3699 14.27C20.4761 14.0873 20.5216 13.8757 20.5001 13.6655C20.4785 13.4553 20.3909 13.2573 20.2499 13.1L18.8999 11.66ZM17.4099 13L18.2099 13.9L16.9299 16.12L15.7499 15.88C15.0297 15.7328 14.2805 15.8551 13.6445 16.2238C13.0085 16.5925 12.53 17.1818 12.2999 17.88L11.9199 19H9.3599L8.9999 17.86C8.76975 17.1618 8.29128 16.5725 7.6553 16.2038C7.01932 15.8351 6.27012 15.7128 5.5499 15.86L4.3699 16.1L3.0699 13.89L3.8699 12.99C4.36185 12.44 4.63383 11.7279 4.63383 10.99C4.63383 10.2521 4.36185 9.54002 3.8699 8.99L3.0699 8.09L4.3499 5.89L5.5299 6.13C6.25012 6.27722 6.99932 6.15488 7.6353 5.7862C8.27128 5.41752 8.74975 4.82816 8.9799 4.13L9.3599 3H11.9199L12.2999 4.14C12.53 4.83816 13.0085 5.42752 13.6445 5.7962C14.2805 6.16488 15.0297 6.28722 15.7499 6.14L16.9299 5.9L18.2099 8.12L17.4099 9.02C16.9235 9.56876 16.6549 10.2767 16.6549 11.01C16.6549 11.7433 16.9235 12.4512 17.4099 13ZM10.6399 7C9.84877 7 9.07541 7.2346 8.41761 7.67412C7.75982 8.11365 7.24713 8.73836 6.94438 9.46927C6.64163 10.2002 6.56241 11.0044 6.71675 11.7804C6.8711 12.5563 7.25206 13.269 7.81147 13.8284C8.37088 14.3878 9.08361 14.7688 9.85954 14.9231C10.6355 15.0775 11.4397 14.9983 12.1706 14.6955C12.9015 14.3928 13.5262 13.8801 13.9658 13.2223C14.4053 12.5645 14.6399 11.7911 14.6399 11C14.6399 9.93914 14.2185 8.92172 13.4683 8.17157C12.7182 7.42143 11.7008 7 10.6399 7ZM10.6399 13C10.2443 13 9.85765 12.8827 9.52876 12.6629C9.19986 12.4432 8.94351 12.1308 8.79214 11.7654C8.64076 11.3999 8.60116 10.9978 8.67833 10.6098C8.7555 10.2219 8.94598 9.86549 9.22568 9.58579C9.50539 9.30608 9.86175 9.1156 10.2497 9.03843C10.6377 8.96126 11.0398 9.00087 11.4053 9.15224C11.7707 9.30362 12.0831 9.55996 12.3028 9.88886C12.5226 10.2178 12.6399 10.6044 12.6399 11C12.6399 11.5304 12.4292 12.0391 12.0541 12.4142C11.679 12.7893 11.1703 13 10.6399 13Z" fill="#333333"/>
</svg>
