<svg width="33" height="34" viewBox="0 0 33 34" fill="none" xmlns="http://www.w3.org/2000/svg">
<path d="M15.58 33.02C15.18 33.02 14.84 32.9 14.56 32.66C14.32 32.38 14.2 32.04 14.2 31.64V19.16H1.9C1.5 19.16 1.16 19.04 0.88 18.8C0.64 18.52 0.52 18.18 0.52 17.78V15.86C0.52 15.46 0.64 15.14 0.88 14.9C1.16 14.62 1.5 14.48 1.9 14.48H14.2V2.36C14.2 1.96 14.32 1.64 14.56 1.4C14.84 1.12 15.18 0.979998 15.58 0.979998H17.68C18.08 0.979998 18.4 1.12 18.64 1.4C18.92 1.64 19.06 1.96 19.06 2.36V14.48H31.42C31.82 14.48 32.14 14.62 32.38 14.9C32.66 15.14 32.8 15.46 32.8 15.86V17.78C32.8 18.18 32.66 18.52 32.38 18.8C32.14 19.04 31.82 19.16 31.42 19.16H19.06V31.64C19.06 32.04 18.92 32.38 18.64 32.66C18.4 32.9 18.08 33.02 17.68 33.02H15.58Z" fill="#999999"/>
</svg>
