<svg width="18" height="18" viewBox="0 0 18 18" fill="none" xmlns="http://www.w3.org/2000/svg">
<path d="M16.95 18C17.25 18 17.5 17.9 17.7 17.7C17.9 17.5 18 17.25 18 16.95V12.9C18 12.6667 17.925 12.4623 17.775 12.287C17.625 12.1123 17.4333 12 17.2 11.95L13.75 11.25C13.5167 11.2167 13.279 11.2373 13.037 11.312C12.7957 11.3873 12.6 11.5 12.45 11.65L10.1 14C8.83333 13.2333 7.67067 12.325 6.612 11.275C5.554 10.225 4.675 9.1 3.975 7.9L6.4 5.45C6.55 5.3 6.646 5.129 6.688 4.937C6.72933 4.74567 6.73333 4.53333 6.7 4.3L6.05 0.8C6.01667 0.566667 5.90833 0.375 5.725 0.225C5.54167 0.0749999 5.33333 0 5.1 0H1.05C0.75 0 0.5 0.0999999 0.299999 0.3C0.0999985 0.5 0 0.75 0 1.05C0 3.2 0.479334 5.29567 1.438 7.337C2.396 9.379 3.66267 11.1873 5.238 12.762C6.81267 14.3373 8.62067 15.604 10.662 16.562C12.704 17.5207 14.8 18 16.95 18ZM3.025 6C2.74167 5.35 2.525 4.69167 2.375 4.025C2.225 3.35833 2.10833 2.68333 2.025 2H4.25L4.675 4.35L3.025 6ZM11.975 14.95L13.65 13.275L16 13.75V15.95C15.3167 15.9 14.6373 15.7917 13.962 15.625C13.2873 15.4583 12.625 15.2333 11.975 14.95Z" fill="#C1C1C1"/>
</svg>
