<svg width="17" height="17" viewBox="0 0 17 17" fill="none" xmlns="http://www.w3.org/2000/svg">
<path d="M8.50008 2.14584C8.78735 2.14584 9.0718 2.20242 9.3372 2.31235C9.6026 2.42228 9.84375 2.58341 10.0469 2.78654C10.25 2.98967 10.4111 3.23082 10.5211 3.49622C10.631 3.76162 10.6876 4.04607 10.6876 4.33334C10.6876 4.6206 10.631 4.90506 10.5211 5.17046C10.4111 5.43586 10.25 5.67701 10.0469 5.88013C9.84375 6.08326 9.6026 6.24439 9.3372 6.35433C9.0718 6.46426 8.78735 6.52084 8.50008 6.52084C7.91992 6.52084 7.36352 6.29037 6.95328 5.88013C6.54305 5.4699 6.31258 4.9135 6.31258 4.33334C6.31258 3.75318 6.54305 3.19678 6.95328 2.78654C7.36352 2.37631 7.91992 2.14584 8.50008 2.14584ZM8.50008 11.5208C11.5938 11.5208 14.8542 13.0417 14.8542 13.7083V14.8542H2.14591V13.7083C2.14591 13.0417 5.40633 11.5208 8.50008 11.5208ZM8.50008 0.166672C6.198 0.166672 4.33341 2.03126 4.33341 4.33334C4.33341 6.63542 6.198 8.5 8.50008 8.5C10.8022 8.5 12.6667 6.63542 12.6667 4.33334C12.6667 2.03126 10.8022 0.166672 8.50008 0.166672ZM8.50008 9.54167C5.71883 9.54167 0.166748 10.9375 0.166748 13.7083V15.7917C0.166748 16.3646 0.635498 16.8333 1.20841 16.8333H15.7917C16.3647 16.8333 16.8334 16.3646 16.8334 15.7917V13.7083C16.8334 10.9375 11.2813 9.54167 8.50008 9.54167Z" fill="#333333"/>
</svg>
