<svg width="61" height="14" viewBox="0 0 61 14" fill="none" xmlns="http://www.w3.org/2000/svg">
<path d="M5.364 13.18C4.632 13.18 3.984 13.096 3.42 12.928C2.856 12.76 2.382 12.532 1.998 12.244C1.614 11.944 1.308 11.602 1.08 11.218C0.864 10.834 0.738 10.42 0.702 9.976C0.69 9.868 0.72 9.784 0.792 9.724C0.876 9.664 0.972 9.634 1.08 9.634H1.98C2.088 9.634 2.184 9.658 2.268 9.706C2.364 9.754 2.436 9.856 2.484 10.012C2.628 10.492 2.94 10.888 3.42 11.2C3.9 11.5 4.542 11.65 5.346 11.65C5.91 11.65 6.42 11.566 6.876 11.398C7.332 11.218 7.698 10.966 7.974 10.642C8.25 10.306 8.388 9.904 8.388 9.436C8.388 8.728 8.13 8.182 7.614 7.798C7.11 7.402 6.42 7.204 5.544 7.204H4.248C4.128 7.204 4.032 7.168 3.96 7.096C3.888 7.012 3.852 6.91 3.852 6.79V6.16C3.852 6.028 3.888 5.926 3.96 5.854C4.032 5.77 4.128 5.728 4.248 5.728H5.472C6.216 5.728 6.816 5.566 7.272 5.242C7.74 4.918 7.974 4.402 7.974 3.694C7.974 3.298 7.854 2.956 7.614 2.668C7.386 2.38 7.08 2.158 6.696 2.002C6.312 1.834 5.88 1.75 5.4 1.75C4.668 1.75 4.056 1.882 3.564 2.146C3.072 2.41 2.766 2.836 2.646 3.424C2.61 3.556 2.556 3.652 2.484 3.712C2.412 3.76 2.322 3.784 2.214 3.784H1.242C1.134 3.784 1.038 3.748 0.954 3.676C0.882 3.604 0.852 3.514 0.864 3.406C0.9 2.95 1.026 2.53 1.242 2.146C1.458 1.75 1.752 1.408 2.124 1.12C2.508 0.832 2.976 0.61 3.528 0.454C4.08 0.297999 4.71 0.219999 5.418 0.219999C6.39 0.219999 7.194 0.381999 7.83 0.705999C8.466 1.03 8.946 1.45 9.27 1.966C9.594 2.47 9.756 3.016 9.756 3.604C9.756 3.964 9.708 4.318 9.612 4.666C9.528 5.014 9.378 5.332 9.162 5.62C8.958 5.908 8.676 6.16 8.316 6.376C8.748 6.58 9.096 6.844 9.36 7.168C9.636 7.48 9.84 7.834 9.972 8.23C10.116 8.614 10.188 9.028 10.188 9.472C10.188 10.204 9.99 10.846 9.594 11.398C9.21 11.95 8.658 12.388 7.938 12.712C7.218 13.024 6.36 13.18 5.364 13.18ZM15.1217 13.18C14.5217 13.18 13.9757 13.06 13.4837 12.82C12.9917 12.58 12.5957 12.256 12.2957 11.848C11.9957 11.44 11.8457 10.978 11.8457 10.462C11.8457 9.634 12.1817 8.974 12.8537 8.482C13.5257 7.99 14.4017 7.666 15.4817 7.51L18.1637 7.132V6.61C18.1637 6.034 17.9957 5.584 17.6597 5.26C17.3357 4.936 16.8017 4.774 16.0577 4.774C15.5177 4.774 15.0797 4.882 14.7437 5.098C14.4197 5.314 14.1917 5.59 14.0597 5.926C13.9877 6.106 13.8617 6.196 13.6817 6.196H12.8717C12.7397 6.196 12.6377 6.16 12.5657 6.088C12.5057 6.004 12.4757 5.908 12.4757 5.8C12.4757 5.62 12.5417 5.398 12.6737 5.134C12.8177 4.87 13.0337 4.612 13.3217 4.36C13.6097 4.108 13.9757 3.898 14.4197 3.73C14.8757 3.55 15.4277 3.46 16.0757 3.46C16.7957 3.46 17.4017 3.556 17.8937 3.748C18.3857 3.928 18.7697 4.174 19.0457 4.486C19.3337 4.798 19.5377 5.152 19.6577 5.548C19.7897 5.944 19.8557 6.346 19.8557 6.754V12.586C19.8557 12.706 19.8137 12.808 19.7297 12.892C19.6577 12.964 19.5617 13 19.4417 13H18.6137C18.4817 13 18.3797 12.964 18.3077 12.892C18.2357 12.808 18.1997 12.706 18.1997 12.586V11.812C18.0437 12.028 17.8337 12.244 17.5697 12.46C17.3057 12.664 16.9757 12.838 16.5797 12.982C16.1837 13.114 15.6977 13.18 15.1217 13.18ZM15.4997 11.83C15.9917 11.83 16.4417 11.728 16.8497 11.524C17.2577 11.308 17.5757 10.978 17.8037 10.534C18.0437 10.09 18.1637 9.532 18.1637 8.86V8.356L16.0757 8.662C15.2237 8.782 14.5817 8.986 14.1497 9.274C13.7177 9.55 13.5017 9.904 13.5017 10.336C13.5017 10.672 13.5977 10.954 13.7897 11.182C13.9937 11.398 14.2457 11.56 14.5457 11.668C14.8577 11.776 15.1757 11.83 15.4997 11.83ZM28.2753 13C28.1433 13 28.0413 12.964 27.9693 12.892C27.8973 12.808 27.8613 12.706 27.8613 12.586V9.652H25.7913V9.562C24.6633 9.562 23.8233 9.286 23.2713 8.734C22.7313 8.17 22.4613 7.456 22.4613 6.592C22.4613 5.584 22.7553 4.84 23.3433 4.36C23.9433 3.88 24.8433 3.64 26.0433 3.64H29.1393C29.2593 3.64 29.3553 3.682 29.4273 3.766C29.5113 3.838 29.5533 3.934 29.5533 4.054V12.586C29.5533 12.706 29.5113 12.808 29.4273 12.892C29.3553 12.964 29.2593 13 29.1393 13H28.2753ZM22.5693 13C22.4613 13 22.3713 12.964 22.2993 12.892C22.2273 12.82 22.1913 12.736 22.1913 12.64C22.1913 12.592 22.1973 12.544 22.2093 12.496C22.2333 12.436 22.2693 12.376 22.3173 12.316L24.4593 9.148L26.1873 9.274L23.9013 12.73C23.8533 12.79 23.7873 12.85 23.7033 12.91C23.6193 12.97 23.5293 13 23.4333 13H22.5693ZM25.8453 8.302H27.8793V4.99H25.9893C25.3173 4.99 24.8193 5.11 24.4953 5.35C24.1833 5.578 24.0273 5.992 24.0273 6.592C24.0273 7.084 24.1713 7.492 24.4593 7.816C24.7593 8.14 25.2213 8.302 25.8453 8.302ZM32.6483 13C32.5283 13 32.4263 12.964 32.3423 12.892C32.2703 12.808 32.2343 12.706 32.2343 12.586V4.054C32.2343 3.934 32.2703 3.838 32.3423 3.766C32.4263 3.682 32.5283 3.64 32.6483 3.64H36.3923C37.5203 3.64 38.3663 3.868 38.9303 4.324C39.5063 4.78 39.7943 5.392 39.7943 6.16C39.7943 6.7 39.6923 7.108 39.4883 7.384C39.2843 7.66 38.9963 7.894 38.6243 8.086C39.0803 8.278 39.4223 8.59 39.6503 9.022C39.8903 9.442 40.0103 9.88 40.0103 10.336C40.0103 11.2 39.7043 11.86 39.0923 12.316C38.4803 12.772 37.6283 13 36.5363 13H32.6483ZM33.8903 11.686H36.3923C36.9683 11.686 37.4303 11.578 37.7783 11.362C38.1383 11.134 38.3183 10.792 38.3183 10.336C38.3183 9.856 38.1563 9.508 37.8323 9.292C37.5083 9.064 37.0283 8.95 36.3923 8.95H33.8903V11.686ZM33.8903 7.618H36.2843C36.8603 7.618 37.3163 7.492 37.6523 7.24C38.0003 6.988 38.1743 6.634 38.1743 6.178C38.1743 5.71 38.0003 5.392 37.6523 5.224C37.3163 5.044 36.8603 4.954 36.2843 4.954H33.8903V7.618ZM42.7382 13C42.6182 13 42.5162 12.964 42.4322 12.892C42.3602 12.808 42.3242 12.706 42.3242 12.586V4.054C42.3242 3.934 42.3602 3.838 42.4322 3.766C42.5162 3.682 42.6182 3.64 42.7382 3.64H43.5842C43.7042 3.64 43.8002 3.682 43.8722 3.766C43.9562 3.838 43.9982 3.934 43.9982 4.054V7.51H45.6362L48.0662 3.91C48.1262 3.826 48.1922 3.76 48.2642 3.712C48.3362 3.664 48.4322 3.64 48.5522 3.64H49.4882C49.5962 3.64 49.6862 3.664 49.7582 3.712C49.8302 3.76 49.8662 3.832 49.8662 3.928C49.8662 3.952 49.8542 3.988 49.8302 4.036C49.8182 4.072 49.8002 4.108 49.7762 4.144L47.0762 8.122L50.1362 12.478C50.1962 12.55 50.2262 12.628 50.2262 12.712C50.2262 12.808 50.1902 12.88 50.1182 12.928C50.0582 12.976 49.9742 13 49.8662 13H48.7682C48.6602 13 48.5702 12.976 48.4982 12.928C48.4262 12.88 48.3602 12.814 48.3002 12.73L45.6542 8.968H43.9982V12.586C43.9982 12.706 43.9562 12.808 43.8722 12.892C43.8002 12.964 43.7042 13 43.5842 13H42.7382ZM52.3706 13C52.2626 13 52.1666 12.964 52.0826 12.892C52.0106 12.808 51.9746 12.718 51.9746 12.622V4.054C51.9746 3.934 52.0106 3.838 52.0826 3.766C52.1666 3.682 52.2686 3.64 52.3886 3.64H53.2526C53.3726 3.64 53.4686 3.682 53.5406 3.766C53.6126 3.838 53.6486 3.934 53.6486 4.054V11.686L53.1806 11.2L58.6346 3.91C58.6946 3.838 58.7606 3.778 58.8326 3.73C58.9046 3.67 58.9946 3.64 59.1026 3.64H59.9306C60.0266 3.64 60.1106 3.676 60.1826 3.748C60.2666 3.82 60.3086 3.904 60.3086 4V12.586C60.3086 12.706 60.2666 12.808 60.1826 12.892C60.1106 12.964 60.0146 13 59.8946 13H59.0486C58.9166 13 58.8146 12.964 58.7426 12.892C58.6706 12.808 58.6346 12.706 58.6346 12.586V5.404L59.1386 5.386L53.6486 12.73C53.6006 12.79 53.5406 12.85 53.4686 12.91C53.3966 12.97 53.3006 13 53.1806 13H52.3706Z" fill="#333333"/>
</svg>
