<svg width="22" height="23" viewBox="0 0 22 23" fill="none" xmlns="http://www.w3.org/2000/svg">
<path fill-rule="evenodd" clip-rule="evenodd" d="M14.4998 20.1667C14.5 20.7553 14.2777 21.3223 13.8774 21.754C13.4771 22.1856 12.9285 22.45 12.3415 22.4942L12.1665 22.5H9.83316C9.24448 22.5002 8.6775 22.2779 8.24585 21.8776C7.81421 21.4773 7.54981 20.9287 7.50566 20.3417L7.49982 20.1667H14.4998ZM10.9998 0.333344C13.1173 0.333309 15.152 1.15572 16.6748 2.6271C18.1975 4.09847 19.0892 6.10378 19.1618 8.22001L19.1665 8.50001V12.8913L21.2922 17.1427C21.3849 17.3282 21.4314 17.5334 21.4275 17.7408C21.4236 17.9481 21.3695 18.1515 21.2698 18.3334C21.1702 18.5152 21.0279 18.6703 20.8552 18.7852C20.6825 18.9 20.4846 18.9714 20.2783 18.993L20.1442 19H1.85549C1.64801 19.0001 1.44362 18.9498 1.25981 18.8536C1.07601 18.7573 0.918282 18.618 0.800143 18.4474C0.682004 18.2769 0.606979 18.0802 0.581495 17.8743C0.556011 17.6684 0.58083 17.4594 0.653823 17.2652L0.70749 17.1427L2.83316 12.8913V8.50001C2.83316 6.33408 3.69357 4.25685 5.22512 2.7253C6.75666 1.19376 8.83389 0.333344 10.9998 0.333344ZM10.9998 2.66668C9.49662 2.66676 8.05147 3.24714 6.96575 4.28678C5.88003 5.32642 5.23756 6.74505 5.17232 8.24684L5.16649 8.50001V12.8913C5.1665 13.1807 5.1127 13.4675 5.00782 13.7372L4.92032 13.9355L3.55532 16.6667H18.4455L17.0805 13.9343C16.951 13.6757 16.8707 13.3952 16.8437 13.1072L16.8332 12.8913V8.50001C16.8332 6.95291 16.2186 5.46918 15.1246 4.37522C14.0307 3.28126 12.5469 2.66668 10.9998 2.66668Z" fill="#454545"/>
</svg>
